<svg width="28" height="28" viewBox="0 0 28 28" fill="none" xmlns="http://www.w3.org/2000/svg">
<rect width="28" height="28" rx="6" fill="#4587ED"/>
<g clip-path="url(#clip0_4203_3769)">
<path fill-rule="evenodd" clip-rule="evenodd" d="M20.9979 14.6269C21.3293 14.6282 21.599 14.3606 21.6002 14.0292C21.6015 13.6979 21.334 13.4282 21.0026 13.4269L14.6024 13.4019L14.6274 7.00174C14.6287 6.67037 14.3611 6.4007 14.0297 6.39941C13.6983 6.39811 13.4287 6.66569 13.4274 6.99706L13.4024 13.3973L7.00221 13.3723C6.67085 13.371 6.40117 13.6386 6.39988 13.9699C6.39858 14.3013 6.66616 14.571 6.99753 14.5723L13.3977 14.5972L13.3728 20.9974C13.3715 21.3288 13.639 21.5985 13.9704 21.5998C14.3018 21.6011 14.5715 21.3335 14.5727 21.0021L14.5977 14.6019L20.9979 14.6269Z" fill="white"/>
</g>
<defs>
<clipPath id="clip0_4203_3769">
<rect width="20" height="20" fill="white" transform="translate(4 4)"/>
</clipPath>
</defs>
</svg>
